<?xml version="1.0" encoding="utf-8"?>
<!-- Generator: Adobe Illustrator 18.1.1, SVG Export Plug-In . SVG Version: 6.00 Build 0)  -->
<svg version="1.1" xmlns="http://www.w3.org/2000/svg" xmlns:xlink="http://www.w3.org/1999/xlink" x="0px" y="0px"
	 viewBox="97.6 120.9 400 600" enable-background="new 97.6 120.9 400 600" xml:space="preserve">
<g id="Layer_5">
	<g>
		<path fill="#FFFFFF" stroke="#CAD5DA" stroke-miterlimit="10" d="M280.7,127.7v4.2v93.3v9.9v21.8v11.3v58.3v9.3v54.6v13.9V486v6.8
			h-15.5c-0.8,0-1.8,0-2.7,0c-61.2,0-110.9,49.6-110.9,110.9s49.6,110.9,110.9,110.9h18.1V713h0.1v1.4h23.7h143.4V478.2v-71V127.7
			H280.7z"/>
		<polygon fill="#FFFFFF" points="276.5,248.8 230,248.8 206.1,404.2 276.5,404.2 		"/>
	</g>
</g>
<g id="Layer_1_copy">
	<g id="Raster_1_" display="none">
	</g>
	<g id="Layer_2_copy_10_1_" display="none">
		
			<polygon display="inline" opacity="0.8" fill="none" stroke="#FFFFFF" stroke-width="2" stroke-miterlimit="10" enable-background="new    " points="
			230,248.8 206.1,404.2 276.5,404.2 276.5,248.8 		"/>
		
			<rect x="334.7" y="492.3" display="inline" opacity="0.8" fill="none" stroke="#FFFFFF" stroke-width="2" stroke-miterlimit="10" enable-background="new    " width="76" height="186.5"/>
		
			<rect x="326.6" y="492.3" display="inline" opacity="0.8" fill="none" stroke="#FFFFFF" stroke-width="2" stroke-miterlimit="10" enable-background="new    " width="8.1" height="25.3"/>
		
			<rect x="326.6" y="533.9" display="inline" opacity="0.8" fill="none" stroke="#FFFFFF" stroke-width="2" stroke-miterlimit="10" enable-background="new    " width="8.1" height="50.3"/>
		
			<rect x="326.6" y="607.1" display="inline" opacity="0.8" fill="none" stroke="#FFFFFF" stroke-width="2" stroke-miterlimit="10" enable-background="new    " width="8.1" height="50.3"/>
		
			<rect x="346.7" y="681.7" display="inline" opacity="0.8" fill="none" stroke="#FFFFFF" stroke-width="2" stroke-miterlimit="10" enable-background="new    " width="64.1" height="31.3"/>
		
			<rect x="337.9" y="681.7" display="inline" opacity="0.8" fill="none" stroke="#FFFFFF" stroke-width="2" stroke-miterlimit="10" enable-background="new    " width="8.8" height="14.4"/>
		
			<rect x="326.6" y="673.2" display="inline" opacity="0.8" fill="none" stroke="#FFFFFF" stroke-width="2" stroke-miterlimit="10" enable-background="new    " width="8.1" height="18.3"/>
		
			<rect x="326.6" y="700" display="inline" opacity="0.8" fill="none" stroke="#FFFFFF" stroke-width="2" stroke-miterlimit="10" enable-background="new    " width="8.1" height="9.2"/>
		
			<rect x="280.7" y="678.9" display="inline" opacity="0.8" fill="none" stroke="#FFFFFF" stroke-width="2" stroke-miterlimit="10" enable-background="new    " width="23.7" height="35.5"/>
		
			<rect x="280.7" y="616.2" display="inline" opacity="0.8" fill="none" stroke="#FFFFFF" stroke-width="2" stroke-miterlimit="10" enable-background="new    " width="23.7" height="42.6"/>
		
			<rect x="280.7" y="585.6" display="inline" opacity="0.8" fill="none" stroke="#FFFFFF" stroke-width="2" stroke-miterlimit="10" enable-background="new    " width="23.7" height="21.5"/>
		
			<rect x="280.7" y="533.9" display="inline" opacity="0.8" fill="none" stroke="#FFFFFF" stroke-width="2" stroke-miterlimit="10" enable-background="new    " width="23.7" height="41.5"/>
		
			<rect x="280.7" y="486" display="inline" opacity="0.8" fill="none" stroke="#FFFFFF" stroke-width="2" stroke-miterlimit="10" enable-background="new    " width="23.7" height="25.3"/>
		
			<rect x="280.7" y="404.2" display="inline" opacity="0.8" fill="none" stroke="#FFFFFF" stroke-width="2" stroke-miterlimit="10" enable-background="new    " width="23.7" height="81.9"/>
		
			<rect x="346.7" y="363.9" display="inline" opacity="0.8" fill="none" stroke="#FFFFFF" stroke-width="2" stroke-miterlimit="10" enable-background="new    " width="101" height="40.3"/>
		<g display="inline">
			<g>
				
					<rect x="346.7" y="363.9" opacity="0.8" fill="none" stroke="#FFFFFF" stroke-width="2" stroke-miterlimit="10" enable-background="new    " width="101" height="40.3"/>
				
					<polygon opacity="0.8" fill="none" stroke="#FFFFFF" stroke-width="2" stroke-miterlimit="10" enable-background="new    " points="
					402.5,248.8 399.7,265.5 399.7,303 441.7,303 441.7,265.5 438.9,248.8 				"/>
				
					<polygon opacity="0.8" fill="none" stroke="#FFFFFF" stroke-width="2" stroke-miterlimit="10" enable-background="new    " points="
					402.5,360.7 399.7,344 399.7,306.5 441.7,306.5 441.7,344 438.9,360.7 				"/>
				
					<polygon opacity="0.8" fill="none" stroke="#FFFFFF" stroke-width="2" stroke-miterlimit="10" enable-background="new    " points="
					402.5,130.5 399.7,147.2 399.7,184.7 441.7,184.7 441.7,147.2 438.9,130.5 				"/>
				
					<polygon opacity="0.8" fill="none" stroke="#FFFFFF" stroke-width="2" stroke-miterlimit="10" enable-background="new    " points="
					402.5,242.5 399.7,225.8 399.7,188.3 441.7,188.3 441.7,225.8 438.9,242.5 				"/>
				
					<polygon opacity="0.8" fill="none" stroke="#FFFFFF" stroke-width="2" stroke-miterlimit="10" enable-background="new    " points="
					367.7,248.8 365.7,265.5 365.7,303 395.1,303 395.1,265.5 393.1,248.8 				"/>
				
					<polygon opacity="0.8" fill="none" stroke="#FFFFFF" stroke-width="2" stroke-miterlimit="10" enable-background="new    " points="
					367.7,360.7 365.7,344 365.7,306.5 395.1,306.5 395.1,344 393.1,360.7 				"/>
				
					<polygon opacity="0.8" fill="none" stroke="#FFFFFF" stroke-width="2" stroke-miterlimit="10" enable-background="new    " points="
					367.7,130.5 365.7,147.2 365.7,184.7 395.1,184.7 395.1,147.2 393.1,130.5 				"/>
				
					<polygon opacity="0.8" fill="none" stroke="#FFFFFF" stroke-width="2" stroke-miterlimit="10" enable-background="new    " points="
					367.7,242.5 365.7,225.8 365.7,188.3 395.1,188.3 395.1,225.8 393.1,242.5 				"/>
				
					<polygon opacity="0.8" fill="none" stroke="#FFFFFF" stroke-width="2" stroke-miterlimit="10" enable-background="new    " points="
					336.2,248.8 334.2,265.5 334.2,303 363.6,303 363.6,265.5 361.6,248.8 				"/>
				
					<polygon opacity="0.8" fill="none" stroke="#FFFFFF" stroke-width="2" stroke-miterlimit="10" enable-background="new    " points="
					336.2,360.7 334.2,344 334.2,306.5 363.6,306.5 363.6,344 361.6,360.7 				"/>
				
					<polygon opacity="0.8" fill="none" stroke="#FFFFFF" stroke-width="2" stroke-miterlimit="10" enable-background="new    " points="
					336.2,130.5 334.2,147.2 334.2,184.7 363.6,184.7 363.6,147.2 361.6,130.5 				"/>
				
					<polygon opacity="0.8" fill="none" stroke="#FFFFFF" stroke-width="2" stroke-miterlimit="10" enable-background="new    " points="
					336.2,242.5 334.2,225.8 334.2,188.3 363.6,188.3 363.6,225.8 361.6,242.5 				"/>
				<g opacity="0.8">
					<rect x="326.6" y="363.9" fill="none" stroke="#FFFFFF" stroke-width="2" stroke-miterlimit="10" width="20.1" height="28.2"/>
				</g>
			</g>
		</g>
		
			<rect x="280.7" y="335.7" display="inline" opacity="0.8" fill="none" stroke="#FFFFFF" stroke-width="2" stroke-miterlimit="10" enable-background="new    " width="23.7" height="54.6"/>
		
			<rect x="280.7" y="268.2" display="inline" opacity="0.8" fill="none" stroke="#FFFFFF" stroke-width="2" stroke-miterlimit="10" enable-background="new    " width="23.7" height="58.3"/>
		
			<polygon display="inline" opacity="0.8" fill="none" stroke="#FFFFFF" stroke-width="2" stroke-miterlimit="10" enable-background="new    " points="
			402.5,248.8 399.7,265.5 399.7,303 441.7,303 441.7,265.5 438.9,248.8 		"/>
		
			<polygon display="inline" opacity="0.8" fill="none" stroke="#FFFFFF" stroke-width="2" stroke-miterlimit="10" enable-background="new    " points="
			402.5,360.7 399.7,344 399.7,306.5 441.7,306.5 441.7,344 438.9,360.7 		"/>
		
			<polygon display="inline" opacity="0.8" fill="none" stroke="#FFFFFF" stroke-width="2" stroke-miterlimit="10" enable-background="new    " points="
			402.5,130.5 399.7,147.2 399.7,184.7 441.7,184.7 441.7,147.2 438.9,130.5 		"/>
		
			<polygon display="inline" opacity="0.8" fill="none" stroke="#FFFFFF" stroke-width="2" stroke-miterlimit="10" enable-background="new    " points="
			402.5,242.5 399.7,225.8 399.7,188.3 441.7,188.3 441.7,225.8 438.9,242.5 		"/>
		
			<polygon display="inline" opacity="0.8" fill="none" stroke="#FFFFFF" stroke-width="2" stroke-miterlimit="10" enable-background="new    " points="
			367.7,248.8 365.7,265.5 365.7,303 395.1,303 395.1,265.5 393.1,248.8 		"/>
		
			<polygon display="inline" opacity="0.8" fill="none" stroke="#FFFFFF" stroke-width="2" stroke-miterlimit="10" enable-background="new    " points="
			367.7,360.7 365.7,344 365.7,306.5 395.1,306.5 395.1,344 393.1,360.7 		"/>
		
			<polygon display="inline" opacity="0.8" fill="none" stroke="#FFFFFF" stroke-width="2" stroke-miterlimit="10" enable-background="new    " points="
			367.7,130.5 365.7,147.2 365.7,184.7 395.1,184.7 395.1,147.2 393.1,130.5 		"/>
		
			<polygon display="inline" opacity="0.8" fill="none" stroke="#FFFFFF" stroke-width="2" stroke-miterlimit="10" enable-background="new    " points="
			367.7,242.5 365.7,225.8 365.7,188.3 395.1,188.3 395.1,225.8 393.1,242.5 		"/>
		
			<polygon display="inline" opacity="0.8" fill="none" stroke="#FFFFFF" stroke-width="2" stroke-miterlimit="10" enable-background="new    " points="
			336.2,248.8 334.2,265.5 334.2,303 363.6,303 363.6,265.5 361.6,248.8 		"/>
		
			<polygon display="inline" opacity="0.8" fill="none" stroke="#FFFFFF" stroke-width="2" stroke-miterlimit="10" enable-background="new    " points="
			336.2,360.7 334.2,344 334.2,306.5 363.6,306.5 363.6,344 361.6,360.7 		"/>
		
			<polygon display="inline" opacity="0.8" fill="none" stroke="#FFFFFF" stroke-width="2" stroke-miterlimit="10" enable-background="new    " points="
			336.2,130.5 334.2,147.2 334.2,184.7 363.6,184.7 363.6,147.2 361.6,130.5 		"/>
		
			<polygon display="inline" opacity="0.8" fill="none" stroke="#FFFFFF" stroke-width="2" stroke-miterlimit="10" enable-background="new    " points="
			336.2,242.5 334.2,225.8 334.2,188.3 363.6,188.3 363.6,225.8 361.6,242.5 		"/>
		
			<path display="inline" opacity="0.8" fill="none" stroke="#FFFFFF" stroke-width="2" stroke-miterlimit="10" enable-background="new    " d="
			M280.7,713v-7.4V502.4v-8.2v-1.5h-15.5l0,0c-0.8,0-1.8,0-2.7,0c-61.2,0-110.9,49.6-110.9,110.9s49.6,110.9,110.9,110.9h18.1
			L280.7,713L280.7,713z"/>
		
			<path display="inline" opacity="0.8" fill="none" stroke="#FFFFFF" stroke-width="2" stroke-miterlimit="10" enable-background="new    " d="
			M394.1,456.1c-1.5,1.3-3.2,2.5-4.9,3.4v18.7h9.4v-17.8L394.1,456.1z"/>
		
			<path display="inline" opacity="0.8" fill="none" stroke="#FFFFFF" stroke-width="2" stroke-miterlimit="10" enable-background="new    " d="
			M447.8,407.2h-50v16.9l-2.7,2.5c3.5,3.7,5.7,8.8,5.7,14.3c0,3.8-1.1,7.4-2.8,10.4c-1.1,1.8-2.3,3.4-3.9,4.9l4.4,4.3v17.8h49.3
			V407.2z"/>
		
			<path display="inline" opacity="0.8" fill="none" stroke="#FFFFFF" stroke-width="2" stroke-miterlimit="10" enable-background="new    " d="
			M383.1,461.5v16.8h6.1v-18.7C387.3,460.5,385.2,461.2,383.1,461.5z"/>
		
			<path display="inline" opacity="0.8" fill="none" stroke="#FFFFFF" stroke-width="2" stroke-miterlimit="10" enable-background="new    " d="
			M379.9,461.7c-1.3,0-2.6-0.1-3.9-0.4v16.9h7v-16.8C382,461.7,381,461.7,379.9,461.7z"/>
		
			<polygon display="inline" opacity="0.8" fill="none" stroke="#FFFFFF" stroke-width="2" stroke-miterlimit="10" enable-background="new    " points="
			360.8,458.8 360.8,472.8 369,472.8 369,460.2 		"/>
		<g display="inline">
			<g>
				<path opacity="0.8" fill="none" stroke="#FFFFFF" stroke-width="2" stroke-miterlimit="10" enable-background="new    " d="
					M394.1,456.1c-1.5,1.3-3.2,2.5-4.9,3.4v18.7h9.4v-17.8L394.1,456.1z"/>
				<path opacity="0.8" fill="none" stroke="#FFFFFF" stroke-width="2" stroke-miterlimit="10" enable-background="new    " d="
					M447.8,407.2h-50v16.9l-2.7,2.5c3.5,3.7,5.7,8.8,5.7,14.3c0,3.8-1.1,7.4-2.8,10.4c-1.1,1.8-2.3,3.4-3.9,4.9l4.4,4.3v17.8h49.3
					V407.2z"/>
				<path opacity="0.8" fill="none" stroke="#FFFFFF" stroke-width="2" stroke-miterlimit="10" enable-background="new    " d="
					M383.1,461.5v16.8h6.1v-18.7C387.3,460.5,385.2,461.2,383.1,461.5z"/>
				<path opacity="0.8" fill="none" stroke="#FFFFFF" stroke-width="2" stroke-miterlimit="10" enable-background="new    " d="
					M379.9,461.7c-1.3,0-2.6-0.1-3.9-0.4v16.9h7v-16.8C382,461.7,381,461.7,379.9,461.7z"/>
				
					<polygon opacity="0.8" fill="none" stroke="#FFFFFF" stroke-width="2" stroke-miterlimit="10" enable-background="new    " points="
					360.8,458.8 360.8,472.8 369,472.8 369,460.2 				"/>
				<path opacity="0.8" fill="none" stroke="#FFFFFF" stroke-width="2" stroke-miterlimit="10" enable-background="new    " d="
					M388,421.6v-17.5h-7.6V420C383.1,420.1,385.6,420.6,388,421.6z"/>
				<path opacity="0.8" fill="none" stroke="#FFFFFF" stroke-width="2" stroke-miterlimit="10" enable-background="new    " d="
					M380.3,420v-15.8h-15.5v21.6h0.6c3.7-3.6,8.8-5.8,14.4-5.8C380.1,420,380.2,420,380.3,420z"/>
				<path opacity="0.8" fill="none" stroke="#FFFFFF" stroke-width="2" stroke-miterlimit="10" enable-background="new    " d="
					M359.6,435.7c0.8-2.9,2.1-5.6,3.9-7.9v-10.3h-8.9v19.1L359.6,435.7z"/>
				
					<polygon opacity="0.8" fill="none" stroke="#FFFFFF" stroke-width="2" stroke-miterlimit="10" enable-background="new    " points="
					354.7,436.6 354.7,417.5 349,417.5 349,437.7 				"/>
				
					<polygon opacity="0.8" fill="none" stroke="#FFFFFF" stroke-width="2" stroke-miterlimit="10" enable-background="new    " points="
					349,437.7 349,417.5 342,417.5 342,438.9 				"/>
				
					<polygon opacity="0.8" fill="none" stroke="#FFFFFF" stroke-width="2" stroke-miterlimit="10" enable-background="new    " points="
					342,471.2 349.9,471.2 349.9,457 342,455.7 				"/>
				
					<polygon opacity="0.8" fill="none" stroke="#FFFFFF" stroke-width="2" stroke-miterlimit="10" enable-background="new    " points="
					342,417.5 342,404.6 326.6,404.6 326.6,441.7 327.3,441.7 342,438.9 				"/>
				
					<polygon opacity="0.8" fill="none" stroke="#FFFFFF" stroke-width="2" stroke-miterlimit="10" enable-background="new    " points="
					342,471.2 342,455.7 327.1,453.3 326.6,453.3 326.6,484.3 342,484.3 				"/>
				<path opacity="0.8" fill="none" stroke="#FFFFFF" stroke-width="2" stroke-miterlimit="10" enable-background="new    " d="
					M369,472.8h4.1v5.4h3v-16.9c-0.3-0.1-0.6-0.1-0.8-0.1l0,0l-6.2-1V472.8z"/>
				
					<polygon opacity="0.8" fill="none" stroke="#FFFFFF" stroke-width="2" stroke-miterlimit="10" enable-background="new    " points="
					352.3,457.4 352.3,472.8 360.8,472.8 360.8,458.8 				"/>
				<path opacity="0.8" fill="none" stroke="#FFFFFF" stroke-width="2" stroke-miterlimit="10" enable-background="new    " d="
					M394.3,425.7h0.8v-21.5h-7v17.5C390.3,422.6,392.5,424,394.3,425.7z"/>
			</g>
		</g>
		
			<path display="inline" opacity="0.8" fill="none" stroke="#FFFFFF" stroke-width="2" stroke-miterlimit="10" enable-background="new    " d="
			M388,421.6v-17.5h-7.6V420C383.1,420.1,385.6,420.6,388,421.6z"/>
		
			<path display="inline" opacity="0.8" fill="none" stroke="#FFFFFF" stroke-width="2" stroke-miterlimit="10" enable-background="new    " d="
			M380.3,420v-15.8h-15.5v21.6h0.6c3.7-3.6,8.8-5.8,14.4-5.8C380.1,420,380.2,420,380.3,420z"/>
		
			<path display="inline" opacity="0.8" fill="none" stroke="#FFFFFF" stroke-width="2" stroke-miterlimit="10" enable-background="new    " d="
			M359.6,435.7c0.8-2.9,2.1-5.6,3.9-7.9v-10.3h-8.9v19.1L359.6,435.7z"/>
		
			<polygon display="inline" opacity="0.8" fill="none" stroke="#FFFFFF" stroke-width="2" stroke-miterlimit="10" enable-background="new    " points="
			354.7,436.6 354.7,417.5 349,417.5 349,437.7 		"/>
		
			<polygon display="inline" opacity="0.8" fill="none" stroke="#FFFFFF" stroke-width="2" stroke-miterlimit="10" enable-background="new    " points="
			349,437.7 349,417.5 342,417.5 342,438.9 		"/>
		
			<polygon display="inline" opacity="0.8" fill="none" stroke="#FFFFFF" stroke-width="2" stroke-miterlimit="10" enable-background="new    " points="
			342,471.2 349.9,471.2 349.9,457 342,455.7 		"/>
		
			<polygon display="inline" opacity="0.8" fill="none" stroke="#FFFFFF" stroke-width="2" stroke-miterlimit="10" enable-background="new    " points="
			342,417.5 342,404.6 326.6,404.6 326.6,441.7 327.3,441.7 342,438.9 		"/>
		
			<polygon display="inline" opacity="0.8" fill="none" stroke="#FFFFFF" stroke-width="2" stroke-miterlimit="10" enable-background="new    " points="
			342,471.2 342,455.7 327.1,453.3 326.6,453.3 326.6,484.3 342,484.3 		"/>
		
			<path display="inline" opacity="0.8" fill="none" stroke="#FFFFFF" stroke-width="2" stroke-miterlimit="10" enable-background="new    " d="
			M375.2,461.2c0.3,0.1,0.6,0.1,0.8,0.1c1.3,0.2,2.5,0.4,3.9,0.4c1.1,0,2.1-0.1,3.2-0.2c2.2-0.4,4.2-1,6.1-1.9
			c1.8-0.9,3.5-2,4.9-3.4c1.5-1.4,2.8-3,3.9-4.9c1.8-3.1,2.8-6.6,2.8-10.4c0-5.6-2.2-10.6-5.7-14.3c-0.3-0.3-0.6-0.6-0.8-0.8
			c-1.8-1.8-3.9-3.2-6.3-4.2s-4.9-1.5-7.6-1.6c-0.1,0-0.3,0-0.5,0c-5.6,0-10.6,2.2-14.4,5.8c-0.7,0.6-1.3,1.3-1.9,2.1
			c-1.8,2.3-3.2,4.9-3.9,7.9 M376.1,455.4c-0.8-0.2-1.7-0.6-2.5-0.9c-1.7-0.8-3.2-1.9-4.4-3.2c-2.6-2.7-4.2-6.4-4.2-10.4
			c0-2.3,0.6-4.4,1.5-6.4c2.4-5.1,7.6-8.7,13.6-8.7c4.3,0,8.2,1.8,10.9,4.6c2.6,2.7,4.2,6.3,4.2,10.4s-1.6,7.7-4.2,10.4
			c-0.3,0.3-0.5,0.5-0.8,0.8c-0.3,0.2-0.5,0.4-0.8,0.6c-1.8,1.4-3.9,2.4-6.1,2.9c-1.1,0.2-2.1,0.4-3.2,0.4
			C378.6,455.9,377.2,455.7,376.1,455.4z"/>
		
			<path display="inline" opacity="0.8" fill="none" stroke="#FFFFFF" stroke-width="2" stroke-miterlimit="10" enable-background="new    " d="
			M369,472.8h4.1v5.4h3v-16.9c-0.3-0.1-0.6-0.1-0.8-0.1l0,0l-6.2-1V472.8z"/>
		
			<rect x="280.7" y="132" display="inline" opacity="0.8" fill="none" stroke="#FFFFFF" stroke-width="2" stroke-miterlimit="10" enable-background="new    " width="23.7" height="93.3"/>
		
			<rect x="280.7" y="235.1" display="inline" opacity="0.8" fill="none" stroke="#FFFFFF" stroke-width="2" stroke-miterlimit="10" enable-background="new    " width="23.7" height="21.8"/>
		
			<polygon display="inline" opacity="0.8" fill="none" stroke="#FFFFFF" stroke-width="2" stroke-miterlimit="10" enable-background="new    " points="
			447.8,127.7 280.7,127.7 280.7,494.2 280.7,713 280.7,714.4 447.8,714.4 		"/>
	</g>
	<g display="none">
		<polygon display="inline" opacity="0.8" fill="#E6E4E5" enable-background="new    " points="447.8,127.7 280.7,127.7 
			280.7,494.2 280.7,713 280.7,714.4 447.8,714.4 		"/>
		
			<rect x="334.7" y="492.3" display="inline" opacity="0.8" fill="#BFBDBE" enable-background="new    " width="76" height="186.5"/>
		
			<rect x="326.6" y="492.3" display="inline" opacity="0.8" fill="#BFBDBE" enable-background="new    " width="8.1" height="25.3"/>
		
			<rect x="326.6" y="533.9" display="inline" opacity="0.8" fill="#BFBDBE" enable-background="new    " width="8.1" height="50.3"/>
		
			<rect x="326.6" y="607.1" display="inline" opacity="0.8" fill="#BFBDBE" enable-background="new    " width="8.1" height="50.3"/>
		
			<rect x="346.7" y="681.7" display="inline" opacity="0.8" fill="#BFBDBE" enable-background="new    " width="64.1" height="31.3"/>
		
			<rect x="337.9" y="681.7" display="inline" opacity="0.8" fill="#BFBDBE" enable-background="new    " width="8.8" height="14.4"/>
		
			<rect x="326.6" y="673.2" display="inline" opacity="0.8" fill="#BFBDBE" enable-background="new    " width="8.1" height="18.3"/>
		<rect x="326.6" y="700" display="inline" opacity="0.8" fill="#BFBDBE" enable-background="new    " width="8.1" height="9.2"/>
		
			<rect x="280.7" y="678.9" display="inline" opacity="0.8" fill="#BFBDBE" enable-background="new    " width="23.7" height="35.5"/>
		
			<rect x="280.7" y="616.2" display="inline" opacity="0.8" fill="#BFBDBE" enable-background="new    " width="23.7" height="42.6"/>
		
			<rect x="280.7" y="585.6" display="inline" opacity="0.8" fill="#BFBDBE" enable-background="new    " width="23.7" height="21.5"/>
		
			<rect x="280.7" y="533.9" display="inline" opacity="0.8" fill="#BFBDBE" enable-background="new    " width="23.7" height="41.5"/>
		<rect x="280.7" y="486" display="inline" opacity="0.8" fill="#BFBDBE" enable-background="new    " width="23.7" height="25.3"/>
		
			<rect x="280.7" y="404.2" display="inline" opacity="0.8" fill="#BFBDBE" enable-background="new    " width="23.7" height="81.9"/>
		
			<rect x="346.7" y="363.9" display="inline" opacity="0.8" fill="#BFBDBE" enable-background="new    " width="101" height="40.3"/>
		<g display="inline">
			<g>
				<rect x="346.7" y="363.9" opacity="0.8" fill="#BFBDBE" enable-background="new    " width="101" height="40.3"/>
				<polygon opacity="0.8" fill="#BFBDBE" enable-background="new    " points="402.5,248.8 399.7,265.5 399.7,303 441.7,303 
					441.7,265.5 438.9,248.8 				"/>
				<polygon opacity="0.8" fill="#BFBDBE" enable-background="new    " points="402.5,360.7 399.7,344 399.7,306.5 441.7,306.5 
					441.7,344 438.9,360.7 				"/>
				<polygon opacity="0.8" fill="#BFBDBE" enable-background="new    " points="402.5,130.5 399.7,147.2 399.7,184.7 441.7,184.7 
					441.7,147.2 438.9,130.5 				"/>
				<polygon opacity="0.8" fill="#BFBDBE" enable-background="new    " points="402.5,242.5 399.7,225.8 399.7,188.3 441.7,188.3 
					441.7,225.8 438.9,242.5 				"/>
				<polygon opacity="0.8" fill="#BFBDBE" enable-background="new    " points="367.7,248.8 365.7,265.5 365.7,303 395.1,303 
					395.1,265.5 393.1,248.8 				"/>
				<polygon opacity="0.8" fill="#BFBDBE" enable-background="new    " points="367.7,360.7 365.7,344 365.7,306.5 395.1,306.5 
					395.1,344 393.1,360.7 				"/>
				<polygon opacity="0.8" fill="#BFBDBE" enable-background="new    " points="367.7,130.5 365.7,147.2 365.7,184.7 395.1,184.7 
					395.1,147.2 393.1,130.5 				"/>
				<polygon opacity="0.8" fill="#BFBDBE" enable-background="new    " points="367.7,242.5 365.7,225.8 365.7,188.3 395.1,188.3 
					395.1,225.8 393.1,242.5 				"/>
				<polygon opacity="0.8" fill="#BFBDBE" enable-background="new    " points="336.2,248.8 334.2,265.5 334.2,303 363.6,303 
					363.6,265.5 361.6,248.8 				"/>
				<polygon opacity="0.8" fill="#BFBDBE" enable-background="new    " points="336.2,360.7 334.2,344 334.2,306.5 363.6,306.5 
					363.6,344 361.6,360.7 				"/>
				<polygon opacity="0.8" fill="#BFBDBE" enable-background="new    " points="336.2,130.5 334.2,147.2 334.2,184.7 363.6,184.7 
					363.6,147.2 361.6,130.5 				"/>
				<polygon opacity="0.8" fill="#BFBDBE" enable-background="new    " points="336.2,242.5 334.2,225.8 334.2,188.3 363.6,188.3 
					363.6,225.8 361.6,242.5 				"/>
				<g opacity="0.8">
					<rect x="326.6" y="363.9" fill="#BFBDBE" width="20.1" height="28.2"/>
				</g>
			</g>
		</g>
		
			<rect x="280.7" y="335.7" display="inline" opacity="0.8" fill="#BFBDBE" enable-background="new    " width="23.7" height="54.6"/>
		
			<rect x="280.7" y="268.2" display="inline" opacity="0.8" fill="#BFBDBE" enable-background="new    " width="23.7" height="58.3"/>
		<polygon display="inline" opacity="0.8" fill="#BFBDBE" enable-background="new    " points="402.5,248.8 399.7,265.5 399.7,303 
			441.7,303 441.7,265.5 438.9,248.8 		"/>
		<polygon display="inline" opacity="0.8" fill="#BFBDBE" enable-background="new    " points="402.5,360.7 399.7,344 399.7,306.5 
			441.7,306.5 441.7,344 438.9,360.7 		"/>
		<polygon display="inline" opacity="0.8" fill="#BFBDBE" enable-background="new    " points="402.5,130.5 399.7,147.2 
			399.7,184.7 441.7,184.7 441.7,147.2 438.9,130.5 		"/>
		<polygon display="inline" opacity="0.8" fill="#BFBDBE" enable-background="new    " points="402.5,242.5 399.7,225.8 
			399.7,188.3 441.7,188.3 441.7,225.8 438.9,242.5 		"/>
		<polygon display="inline" opacity="0.8" fill="#BFBDBE" enable-background="new    " points="367.7,248.8 365.7,265.5 365.7,303 
			395.1,303 395.1,265.5 393.1,248.8 		"/>
		<polygon display="inline" opacity="0.8" fill="#BFBDBE" enable-background="new    " points="367.7,360.7 365.7,344 365.7,306.5 
			395.1,306.5 395.1,344 393.1,360.7 		"/>
		<polygon display="inline" opacity="0.8" fill="#BFBDBE" enable-background="new    " points="367.7,130.5 365.7,147.2 
			365.7,184.7 395.1,184.7 395.1,147.2 393.1,130.5 		"/>
		<polygon display="inline" opacity="0.8" fill="#BFBDBE" enable-background="new    " points="367.7,242.5 365.7,225.8 
			365.7,188.3 395.1,188.3 395.1,225.8 393.1,242.5 		"/>
		<polygon display="inline" opacity="0.8" fill="#BFBDBE" enable-background="new    " points="336.2,248.8 334.2,265.5 334.2,303 
			363.6,303 363.6,265.5 361.6,248.8 		"/>
		<polygon display="inline" opacity="0.8" fill="#BFBDBE" enable-background="new    " points="336.2,360.7 334.2,344 334.2,306.5 
			363.6,306.5 363.6,344 361.6,360.7 		"/>
		<polygon display="inline" opacity="0.8" fill="#BFBDBE" enable-background="new    " points="336.2,130.5 334.2,147.2 
			334.2,184.7 363.6,184.7 363.6,147.2 361.6,130.5 		"/>
		<polygon display="inline" opacity="0.8" fill="#BFBDBE" enable-background="new    " points="336.2,242.5 334.2,225.8 
			334.2,188.3 363.6,188.3 363.6,225.8 361.6,242.5 		"/>
		<path display="inline" opacity="0.8" fill="#BFBDBE" enable-background="new    " d="M394.1,456.1c-1.5,1.3-3.2,2.5-4.9,3.4v18.7
			h9.4v-17.8L394.1,456.1z"/>
		<path display="inline" opacity="0.8" fill="#BFBDBE" enable-background="new    " d="M447.8,407.2h-50v16.9l-2.7,2.5
			c3.5,3.7,5.7,8.8,5.7,14.3c0,3.8-1.1,7.4-2.8,10.4c-1.1,1.8-2.3,3.4-3.9,4.9l4.4,4.3v17.8h49.3V407.2z"/>
		<path display="inline" opacity="0.8" fill="#BFBDBE" enable-background="new    " d="M383.1,461.5v16.8h6.1v-18.7
			C387.3,460.5,385.2,461.2,383.1,461.5z"/>
		<path display="inline" opacity="0.8" fill="#BFBDBE" enable-background="new    " d="M379.9,461.7c-1.3,0-2.6-0.1-3.9-0.4v16.9h7
			v-16.8C382,461.7,381,461.7,379.9,461.7z"/>
		<polygon display="inline" opacity="0.8" fill="#BFBDBE" enable-background="new    " points="360.8,458.8 360.8,472.8 369,472.8 
			369,460.2 		"/>
		<g display="inline">
			<g>
				<path opacity="0.8" fill="#BFBDBE" enable-background="new    " d="M394.1,456.1c-1.5,1.3-3.2,2.5-4.9,3.4v18.7h9.4v-17.8
					L394.1,456.1z"/>
				<path opacity="0.8" fill="#BFBDBE" enable-background="new    " d="M447.8,407.2h-50v16.9l-2.7,2.5c3.5,3.7,5.7,8.8,5.7,14.3
					c0,3.8-1.1,7.4-2.8,10.4c-1.1,1.8-2.3,3.4-3.9,4.9l4.4,4.3v17.8h49.3V407.2z"/>
				<path opacity="0.8" fill="#BFBDBE" enable-background="new    " d="M383.1,461.5v16.8h6.1v-18.7
					C387.3,460.5,385.2,461.2,383.1,461.5z"/>
				<path opacity="0.8" fill="#BFBDBE" enable-background="new    " d="M379.9,461.7c-1.3,0-2.6-0.1-3.9-0.4v16.9h7v-16.8
					C382,461.7,381,461.7,379.9,461.7z"/>
				<polygon opacity="0.8" fill="#BFBDBE" enable-background="new    " points="360.8,458.8 360.8,472.8 369,472.8 369,460.2 				
					"/>
				<path opacity="0.8" fill="#BFBDBE" enable-background="new    " d="M388,421.6v-17.5h-7.6V420
					C383.1,420.1,385.6,420.6,388,421.6z"/>
				<path opacity="0.8" fill="#BFBDBE" enable-background="new    " d="M380.3,420v-15.8h-15.5v21.6h0.6c3.7-3.6,8.8-5.8,14.4-5.8
					C380.1,420,380.2,420,380.3,420z"/>
				<path opacity="0.8" fill="#BFBDBE" enable-background="new    " d="M359.6,435.7c0.8-2.9,2.1-5.6,3.9-7.9v-10.3h-8.9v19.1
					L359.6,435.7z"/>
				<polygon opacity="0.8" fill="#BFBDBE" enable-background="new    " points="354.7,436.6 354.7,417.5 349,417.5 349,437.7 				
					"/>
				<polygon opacity="0.8" fill="#BFBDBE" enable-background="new    " points="349,437.7 349,417.5 342,417.5 342,438.9 				"/>
				<polygon opacity="0.8" fill="#BFBDBE" enable-background="new    " points="342,471.2 349.9,471.2 349.9,457 342,455.7 				"/>
				<polygon opacity="0.8" fill="#BFBDBE" enable-background="new    " points="342,417.5 342,404.6 326.6,404.6 326.6,441.7 
					327.3,441.7 342,438.9 				"/>
				<polygon opacity="0.8" fill="#BFBDBE" enable-background="new    " points="342,471.2 342,455.7 327.1,453.3 326.6,453.3 
					326.6,484.3 342,484.3 				"/>
				<path opacity="0.8" fill="#BFBDBE" enable-background="new    " d="M369,472.8h4.1v5.4h3v-16.9c-0.3-0.1-0.6-0.1-0.8-0.1l0,0
					l-6.2-1V472.8z"/>
				<polygon opacity="0.8" fill="#BFBDBE" enable-background="new    " points="352.3,457.4 352.3,472.8 360.8,472.8 360.8,458.8 
									"/>
				<path opacity="0.8" fill="#BFBDBE" enable-background="new    " d="M394.3,425.7h0.8v-21.5h-7v17.5
					C390.3,422.6,392.5,424,394.3,425.7z"/>
			</g>
		</g>
		<path display="inline" opacity="0.8" fill="#BFBDBE" enable-background="new    " d="M388,421.6v-17.5h-7.6V420
			C383.1,420.1,385.6,420.6,388,421.6z"/>
		<path display="inline" opacity="0.8" fill="#BFBDBE" enable-background="new    " d="M380.3,420v-15.8h-15.5v21.6h0.6
			c3.7-3.6,8.8-5.8,14.4-5.8C380.1,420,380.2,420,380.3,420z"/>
		<path display="inline" opacity="0.8" fill="#BFBDBE" enable-background="new    " d="M359.6,435.7c0.8-2.9,2.1-5.6,3.9-7.9v-10.3
			h-8.9v19.1L359.6,435.7z"/>
		<polygon display="inline" opacity="0.8" fill="#BFBDBE" enable-background="new    " points="354.7,436.6 354.7,417.5 349,417.5 
			349,437.7 		"/>
		<polygon display="inline" opacity="0.8" fill="#BFBDBE" enable-background="new    " points="349,437.7 349,417.5 342,417.5 
			342,438.9 		"/>
		<polygon display="inline" opacity="0.8" fill="#BFBDBE" enable-background="new    " points="342,471.2 349.9,471.2 349.9,457 
			342,455.7 		"/>
		<polygon display="inline" opacity="0.8" fill="#BFBDBE" enable-background="new    " points="342,417.5 342,404.6 326.6,404.6 
			326.6,441.7 327.3,441.7 342,438.9 		"/>
		<polygon display="inline" opacity="0.8" fill="#BFBDBE" enable-background="new    " points="342,471.2 342,455.7 327.1,453.3 
			326.6,453.3 326.6,484.3 342,484.3 		"/>
		<path display="inline" opacity="0.8" fill="#BFBDBE" enable-background="new    " d="M369,472.8h4.1v5.4h3v-16.9
			c-0.3-0.1-0.6-0.1-0.8-0.1l0,0l-6.2-1V472.8z"/>
		<rect x="280.7" y="132" display="inline" opacity="0.8" fill="#BFBDBE" enable-background="new    " width="23.7" height="93.3"/>
		
			<rect x="280.7" y="235.1" display="inline" opacity="0.8" fill="#BFBDBE" enable-background="new    " width="23.7" height="21.8"/>
	</g>
	<g display="none">
		<path display="inline" fill="#FFFFFF" d="M280.7,127.7v4.2v93.3v9.9v21.8v11.3v58.3v9.3v54.6v13.9V486v6.8h-15.5
			c-0.8,0-1.8,0-2.7,0c-61.2,0-110.9,49.6-110.9,110.9s49.6,110.9,110.9,110.9h18.1V713h0.1v1.4h23.7h143.4V478.2v-71V127.7H280.7z"
			/>
		<polygon display="inline" fill="#FFFFFF" points="276.5,248.8 230,248.8 206.1,404.2 276.5,404.2 		"/>
	</g>
	<g display="none">
		<path display="inline" fill="#BDBDB0" d="M204.9,405.2h72.6V247.8h-48.4L204.9,405.2z M275.5,249.8v153.3h-68.3l23.6-153.3H275.5z
			"/>
		<path display="inline" fill="#BDBDB0" d="M333.7,491.3h-8.1v27.3h8.1v14.2h-8.1v52.3h8.1v20.9h-8.1v52.3h8.1v13.8h-8.1v20.3h10.1
			v-12.7h76V491.3h-76H333.7z M327.6,516.7v-23.3h6.1v23.3H327.6z M327.6,583.2v-48.3h6.1v48.3H327.6z M327.6,656.4v-48.3h6.1v48.3
			H327.6z M333.7,690.5h-6.1v-16.3h6.1v5.6V690.5z M409.8,493.3v184.5h-74v-5.6v-13.8v-52.3v-20.9v-52.3v-14.2v-25.3H409.8z"/>
		<path display="inline" fill="#BDBDB0" d="M345.7,680.7h-8.8v16.4h8.8V714h66.1v-33.3h-64.1H345.7z M338.9,695.1v-12.4h6.8v12.4
			H338.9z M409.8,682.7V712h-62.1v-14.9v-14.4H409.8z"/>
		<path display="inline" fill="#BDBDB0" d="M325.6,710.1h10.1V699h-10.1V710.1z M327.6,701h6.1v7.2h-6.1V701z"/>
		<path display="inline" fill="#BDBDB0" d="M279.7,715.4h25.7v-37.5h-25.7V715.4z M281.7,679.9h21.7v33.5h-21.7V679.9z"/>
		<path display="inline" fill="#BDBDB0" d="M279.7,659.8h25.7v-44.6h-25.7V659.8z M281.7,617.2h21.7v40.6h-21.7V617.2z"/>
		<path display="inline" fill="#BDBDB0" d="M279.7,608.1h25.7v-23.5h-25.7V608.1z M281.7,586.6h21.7v19.5h-21.7V586.6z"/>
		<path display="inline" fill="#BDBDB0" d="M279.7,576.4h25.7v-43.5h-25.7V576.4z M281.7,534.9h21.7v39.5h-21.7V534.9z"/>
		<path display="inline" fill="#BDBDB0" d="M279.7,485v2v25.3h25.7V487v-2v-81.9h-25.7V485z M303.5,510.4h-21.7V487h21.7V510.4z
			 M281.7,405.2h21.7V485h-21.7V405.2z"/>
		<path display="inline" fill="#BDBDB0" d="M279.7,391.3h25.7v-56.6h-25.7V391.3z M281.7,336.7h21.7v52.6h-21.7V336.7z"/>
		<path display="inline" fill="#BDBDB0" d="M279.7,327.4h25.7v-60.3h-25.7V327.4z M281.7,269.2h21.7v56.3h-21.7V269.2z"/>
		<path display="inline" fill="#BDBDB0" d="M442.7,265.5l-3-17.7h-38.1l-3,17.5l0,38.7h44V265.5z M440.7,302h-40v-36.4l2.7-15.8
			h34.7l2.7,15.8V302z"/>
		<path display="inline" fill="#BDBDB0" d="M439.8,361.7l3-17.5l0-38.7h-44V344l3,17.7H439.8z M400.7,307.5h40V344l-2.7,15.8h-34.7
			l-2.7-15.8V307.5z"/>
		<path display="inline" fill="#BDBDB0" d="M442.7,147.2l-3-17.7h-38.1l-3,17.5l0,38.7h44V147.2z M440.7,183.7h-40v-36.4l2.7-15.8
			h34.7l2.7,15.8V183.7z"/>
		<path display="inline" fill="#BDBDB0" d="M439.8,243.5l3-17.5l0-38.7h-44v38.5l3,17.7H439.8z M400.7,189.3h40v36.4l-2.7,15.8
			h-34.7l-2.7-15.8V189.3z"/>
		<path display="inline" fill="#BDBDB0" d="M396.1,265.5l-2.1-17.7h-27.2l-2.1,17.6l0,38.6h31.4V265.5z M394.1,302h-27.4v-36.5
			l1.9-15.7h23.6l1.9,15.7V302z"/>
		<path display="inline" fill="#BDBDB0" d="M394,361.7l2.1-17.6l0-38.6h-31.4V344l2.1,17.7H394z M366.7,307.5h27.4V344l-1.9,15.7
			h-23.6l-1.9-15.7V307.5z"/>
		<path display="inline" fill="#BDBDB0" d="M396.1,147.2l-2.1-17.7h-27.2l-2.1,17.6l0,38.6h31.4V147.2z M394.1,183.7h-27.4v-36.5
			l1.9-15.7h23.6l1.9,15.7V183.7z"/>
		<path display="inline" fill="#BDBDB0" d="M394,243.5l2.1-17.6l0-38.6h-31.4v38.5l2.1,17.7H394z M366.7,189.3h27.4v36.5l-1.9,15.7
			h-23.6l-1.9-15.7V189.3z"/>
		<path display="inline" fill="#BDBDB0" d="M364.6,265.5l-2.1-17.7h-27.2l-2.1,17.6l0,38.6h31.4V265.5z M362.6,302h-27.4v-36.5
			l1.9-15.7h23.6l1.9,15.7V302z"/>
		<path display="inline" fill="#BDBDB0" d="M362.5,361.7l2.1-17.6l0-38.6h-31.4V344l2.1,17.7H362.5z M335.2,307.5h27.4V344
			l-1.9,15.7h-23.6l-1.9-15.7V307.5z"/>
		<path display="inline" fill="#BDBDB0" d="M364.6,147.2l-2.1-17.7h-27.2l-2.1,17.6l0,38.6h31.4V147.2z M362.6,183.7h-27.4v-36.5
			l1.9-15.7h23.6l1.9,15.7V183.7z"/>
		<path display="inline" fill="#BDBDB0" d="M362.5,243.5l2.1-17.6l0-38.6h-31.4v38.5l2.1,17.7H362.5z M335.2,189.3h27.4v36.5
			l-1.9,15.7h-23.6l-1.9-15.7V189.3z"/>
		<path display="inline" fill="#BDBDB0" d="M396.9,406.2v17.4l-0.8,0.7v-19.2h52.7v-42.3h-101h-2h-20.1V393h20.1v12.1h18.2v11.4
			h-8.2h-2H350h-2h-5v-13h-17.3v39.1h1.8l14.7-2.8l5.8-1.1v0l1.1-0.2l0.9-0.2v0l5.2-1l5.3-1l0.2-0.6c0,0,0,0,0,0l0.1,0
			c0.7-2.8,2-5.4,3.8-7.5c0.5-0.7,1.1-1.3,1.7-1.9l0,0c3.7-3.5,8.5-5.5,13.7-5.5h0.5c2.5,0.1,4.9,0.6,7.2,1.5c2.2,0.9,4.2,2.2,6,3.9
			l0.8,0.8c3.5,3.7,5.4,8.5,5.4,13.6c0,0.4,0,0.9,0,1.3c0,0,0,0.1,0,0.1c0,0.4-0.1,0.8-0.1,1.2c-0.3,2.5-1.2,5-2.5,7.3
			c-0.9,1.6-2.2,3.2-3.7,4.6c-1.4,1.3-3.1,2.4-4.7,3.3c-1.8,0.9-3.8,1.5-5.8,1.8c-1,0.1-2,0.2-3,0.2c-1.1,0-2.3-0.1-3.7-0.3l-0.2,0
			c-0.2,0-0.4-0.1-0.6-0.1l0,0l0,0.1c0,0-0.1,0-0.1,0l0,0l-0.2,0v0l-5-0.8v-0.1l-9-1.5l-9.7-1.6v17.6h8.4h2h6.2h2h2.1v5.4h3h2h5h2
			h4.1h2h9.4v-0.1h49.3v-73H396.9z M387,420.1c-1.8-0.6-3.7-1-5.6-1.1v-13.8h5.6V420.1z M394.1,424.2c-1.5-1.3-3.2-2.4-5-3.3v-15.8
			h5V424.2z M327.6,391v-26.2h18.1V391H327.6z M347.7,403.2V393v-28.2h99v38.3h-50.7h-7h-2h-5.7h-1.9h-15.6H347.7z M379.3,405.2
			v13.8c-4.3,0.1-8.5,1.5-11.9,3.9c-0.1,0.1-0.2,0.1-0.2,0.2c-0.4,0.3-0.8,0.6-1.1,0.9c-0.1,0.1-0.1,0.1-0.2,0.1v-18.9H379.3z
			 M327.6,405.6H341v11v21.6l-13.3,2.5V405.6z M343,437.7v-19.2h5v18.3L343,437.7z M350,418.5h3.7v17.2l-3.7,0.7V418.5z
			 M355.7,418.5h6.9v8.9c-1.7,2.2-2.9,4.7-3.7,7.4l-3.2,0.6V418.5z M359.8,471.8h-6.4v-13.2l6.4,1.1V471.8z M368,471.8h-6.2V460
			l6.2,1V471.8z M374.1,477.3v-5.4H370v-10.4l5,0.8l0,15H374.1z M382.1,477.3h-5v-14.7c1.8,0.2,3.4,0.2,5,0.1V477.3z M388.2,477.3
			h-4.1v-14.9c1.5-0.3,2.8-0.7,4.1-1.2V477.3z M390.2,460.1C390.2,460.1,390.3,460.1,390.2,460.1c1.5-0.8,2.8-1.7,3.9-2.7l3.5,3.4
			v16.4h-7.4V460.1z M446.8,477.2h-47.3V460V460l-4-3.9c1.3-1.3,2.3-2.7,3.3-4.4c0,0,0,0,0,0c0,0,0,0,0,0c0,0,0,0,0,0
			c1.2-2.1,2.1-4.3,2.5-6.7c0-0.2,0.1-0.5,0.1-0.7c0-0.2,0.1-0.5,0.1-0.7c0.1-0.9,0.2-1.9,0.2-2.8c0-0.7,0-1.3-0.1-2
			c0-0.2-0.1-0.4-0.1-0.6c-0.1-0.4-0.1-0.9-0.2-1.3c0-0.2-0.1-0.5-0.2-0.7c-0.1-0.4-0.2-0.8-0.3-1.2c-0.1-0.3-0.2-0.5-0.2-0.7
			c-0.1-0.4-0.3-0.8-0.4-1.2c-0.1-0.2-0.2-0.5-0.3-0.7c-0.2-0.4-0.3-0.7-0.5-1.1c-0.1-0.2-0.2-0.5-0.4-0.7c-0.2-0.4-0.4-0.7-0.6-1.1
			c-0.1-0.2-0.3-0.4-0.4-0.7c-0.2-0.3-0.5-0.7-0.7-1c-0.2-0.2-0.3-0.4-0.5-0.7c-0.1-0.2-0.2-0.3-0.4-0.5l2.3-2.1v-16.3h48V477.2z"/>
		<path display="inline" fill="#BDBDB0" d="M343,472.2h7.9v-16.1l-8.8-1.4l-14.9-2.5l-1.6,0v33H343V472.2z M348.9,470.2H343v-13.3
			l5.9,0.9V470.2z M341,483.3h-13.3v-28.9l13.3,2.2v15.6V483.3z"/>
		<path display="inline" fill="#BDBDB0" d="M375.8,456.4c1.1,0.3,2.4,0.5,4.1,0.6c1,0,2.1-0.1,3.4-0.4c2.4-0.5,4.7-1.6,6.5-3.1
			c0.2-0.1,0.3-0.2,0.4-0.4c0.1-0.1,0.2-0.2,0.3-0.3l0.9-0.9c2.9-3,4.5-6.9,4.5-11.1c0-4.2-1.6-8.2-4.4-11.1c-3-3.2-7.2-5-11.6-5
			c-6.2,0-11.9,3.6-14.5,9.2c-1.1,2.3-1.6,4.5-1.6,6.8c0,4.1,1.6,8.2,4.5,11.1c1.5,1.5,3.1,2.6,4.8,3.4
			C374,455.8,374.9,456.1,375.8,456.4z M365.9,440.9c0-2,0.5-4,1.4-6c2.3-4.9,7.3-8.1,12.7-8.1c3.9,0,7.5,1.5,10.2,4.3
			c2.5,2.6,3.9,6,3.9,9.7c0,3.7-1.4,7.1-3.9,9.7l-0.7,0.7c-0.1,0.1-0.3,0.2-0.4,0.3c-0.1,0.1-0.2,0.2-0.4,0.3
			c-1.6,1.3-3.6,2.2-5.7,2.7c-1.1,0.2-2.1,0.3-2.9,0.3c-1.6-0.1-2.7-0.2-3.6-0.5l0,0c-0.8-0.2-1.6-0.5-2.4-0.9
			c-1.4-0.7-2.8-1.7-4.1-3C367.3,448,365.9,444.5,365.9,440.9z"/>
		<path display="inline" fill="#BDBDB0" d="M279.7,226.2h25.7V131h-25.7V226.2z M281.7,133h21.7v91.3h-21.7V133z"/>
		<path display="inline" fill="#BDBDB0" d="M279.7,257.9h25.7v-23.8h-25.7V257.9z M281.7,236.1h21.7v19.8h-21.7V236.1z"/>
	</g>
	<rect x="281.7" y="617.2" fill="#CAD5DA" width="21.7" height="40.6"/>
	<rect x="281.7" y="679.9" fill="#CAD5DA" width="21.7" height="33.5"/>
	<rect x="281.7" y="534.9" fill="#CAD5DA" width="21.7" height="39.5"/>
	<rect x="281.7" y="586.6" fill="#CAD5DA" width="21.7" height="19.5"/>
	<rect x="281.7" y="133" fill="#CAD5DA" width="21.7" height="91.3"/>
	<rect x="281.7" y="236.1" fill="#CAD5DA" width="21.7" height="19.8"/>
	<polygon fill="#CAD5DA" points="275.5,403.2 275.5,249.8 230.9,249.8 207.2,403.2 	"/>
	<rect x="327.6" y="701" fill="#CAD5DA" width="6.1" height="7.2"/>
	<rect x="281.7" y="269.2" fill="#CAD5DA" width="21.7" height="56.3"/>
	<rect x="281.7" y="405.2" fill="#CAD5DA" width="21.7" height="79.9"/>
	<rect x="281.7" y="487" fill="#CAD5DA" width="21.7" height="23.3"/>
	<rect x="281.7" y="336.7" fill="#CAD5DA" width="21.7" height="52.6"/>
	<polygon fill="#CAD5DA" points="360.7,359.7 362.6,344 362.6,307.5 335.2,307.5 335.2,344 337.1,359.7 	"/>
	<polygon fill="#CAD5DA" points="392.2,241.5 394.1,225.7 394.1,189.3 366.7,189.3 366.7,225.7 368.6,241.5 	"/>
	<polygon fill="#CAD5DA" points="368.6,249.8 366.7,265.5 366.7,302 394.1,302 394.1,265.5 392.2,249.8 	"/>
	<polygon fill="#CAD5DA" points="368.6,131.5 366.7,147.3 366.7,183.7 394.1,183.7 394.1,147.3 392.2,131.5 	"/>
	<polygon fill="#CAD5DA" points="392.2,359.7 394.1,344 394.1,307.5 366.7,307.5 366.7,344 368.6,359.7 	"/>
	<polygon fill="#CAD5DA" points="438.1,359.7 440.7,344 440.7,307.5 400.7,307.5 400.7,344 403.4,359.7 	"/>
	<polygon fill="#CAD5DA" points="438.1,241.5 440.7,225.7 440.7,189.3 400.7,189.3 400.7,225.7 403.4,241.5 	"/>
	<rect x="338.9" y="682.7" fill="#CAD5DA" width="6.8" height="12.4"/>
	<polygon fill="#CAD5DA" points="348.9,457.9 343,456.9 343,470.2 348.9,470.2 	"/>
	<polygon fill="#CAD5DA" points="403.4,131.5 400.7,147.3 400.7,183.7 440.7,183.7 440.7,147.3 438.1,131.5 	"/>
	<polygon fill="#CAD5DA" points="327.6,483.3 341,483.3 341,472.2 341,456.6 327.6,454.4 	"/>
	<polygon fill="#CAD5DA" points="337.1,249.8 335.2,265.5 335.2,302 362.6,302 362.6,265.5 360.7,249.8 	"/>
	<polygon fill="#CAD5DA" points="360.7,241.5 362.6,225.7 362.6,189.3 335.2,189.3 335.2,225.7 337.1,241.5 	"/>
	<polygon fill="#CAD5DA" points="337.1,131.5 335.2,147.3 335.2,183.7 362.6,183.7 362.6,147.3 360.7,131.5 	"/>
	<path fill="#CAD5DA" d="M396.9,427.1c0.2,0.2,0.3,0.4,0.5,0.7c0.2,0.3,0.5,0.7,0.7,1c0.1,0.2,0.3,0.4,0.4,0.7
		c0.2,0.4,0.4,0.7,0.6,1.1c0.1,0.2,0.3,0.5,0.4,0.7c0.2,0.4,0.3,0.7,0.5,1.1c0.1,0.2,0.2,0.5,0.3,0.7c0.1,0.4,0.3,0.8,0.4,1.2
		c0.1,0.2,0.2,0.5,0.2,0.7c0.1,0.4,0.2,0.8,0.3,1.2c0.1,0.2,0.1,0.5,0.2,0.7c0.1,0.4,0.1,0.9,0.2,1.3c0,0.2,0.1,0.4,0.1,0.6
		c0.1,0.7,0.1,1.3,0.1,2c0,1-0.1,1.9-0.2,2.8c0,0.2-0.1,0.5-0.1,0.7c0,0.2-0.1,0.5-0.1,0.7c-0.5,2.3-1.3,4.6-2.5,6.7c0,0,0,0,0,0
		c0,0,0,0,0,0c0,0,0,0,0,0c-1,1.7-2,3.1-3.3,4.4l4,3.9v0.1v17.2h47.3v-69h-48v16.3l-2.3,2.1C396.7,426.8,396.8,426.9,396.9,427.1z"
		/>
	<path fill="#CAD5DA" d="M355.7,435.4l3.2-0.6c0.8-2.7,2.1-5.2,3.7-7.4v-8.9h-6.9V435.4z"/>
	<path fill="#CAD5DA" d="M390.3,460.1C390.3,460.1,390.2,460.1,390.3,460.1l-0.1,17.2h7.4v-16.4l-3.5-3.4
		C393,458.4,391.8,459.3,390.3,460.1z"/>
	<path fill="#CAD5DA" d="M365.9,424.1c0.1-0.1,0.1-0.1,0.2-0.1c0.4-0.3,0.8-0.6,1.1-0.9c0.1-0.1,0.2-0.1,0.2-0.2
		c3.5-2.4,7.6-3.8,11.9-3.9v-13.8h-13.5V424.1z"/>
	<path fill="#CAD5DA" d="M381.4,419c1.9,0.1,3.8,0.5,5.6,1.1v-15h-5.6V419z"/>
	<path fill="#CAD5DA" d="M377,462.5v14.7h5v-14.6C380.4,462.8,378.9,462.8,377,462.5z"/>
	<polygon fill="#CAD5DA" points="343,437.7 348,436.8 348,418.5 343,418.5 	"/>
	<polygon fill="#CAD5DA" points="350,436.5 353.7,435.8 353.7,418.5 350,418.5 	"/>
	<rect x="327.6" y="364.9" fill="#CAD5DA" width="18.1" height="26.2"/>
	<polygon fill="#CAD5DA" points="353.3,471.8 359.8,471.8 359.8,459.7 353.3,458.6 	"/>
	<polygon fill="#CAD5DA" points="361.8,471.8 368,471.8 368,461 361.8,460 	"/>
	<polygon fill="#CAD5DA" points="370,461.4 370,471.8 374.1,471.8 374.1,477.3 375,477.3 375,462.2 	"/>
	<path fill="#CAD5DA" d="M389,420.9c1.8,0.8,3.5,1.9,5,3.3v-19h-5V420.9z"/>
	<polygon fill="#CAD5DA" points="446.7,403.2 446.7,364.9 347.7,364.9 347.7,393 347.7,403.2 363.9,403.2 379.4,403.2 381.3,403.2 
		387,403.2 389,403.2 396.1,403.2 	"/>
	<path fill="#CAD5DA" d="M384.1,477.3h4.1v-16.2c-1.3,0.5-2.7,0.9-4.1,1.2V477.3z"/>
	<polygon fill="#CAD5DA" points="327.6,440.6 341,438.1 341,416.5 341,405.6 327.6,405.6 	"/>
	<polygon fill="#CAD5DA" points="327.6,690.5 333.7,690.5 333.7,679.9 333.7,674.2 327.6,674.2 	"/>
	<rect x="327.6" y="608.1" fill="#CAD5DA" width="6.1" height="48.3"/>
	<path fill="#CAD5DA" d="M376.3,454.4L376.3,454.4c1,0.3,2.1,0.5,3.7,0.5c0.8,0,1.8-0.1,2.9-0.3c2.1-0.5,4.1-1.4,5.7-2.7
		c0.1-0.1,0.3-0.2,0.4-0.3c0.1-0.1,0.2-0.2,0.4-0.3l0.7-0.7c2.5-2.6,3.9-6.1,3.9-9.7c0-3.7-1.4-7.2-3.9-9.7
		c-2.7-2.8-6.3-4.3-10.2-4.3c-5.4,0-10.4,3.2-12.7,8.1c-0.9,2-1.4,4-1.4,6c0,3.6,1.4,7.1,3.9,9.7c1.3,1.3,2.7,2.3,4.1,3
		C374.7,453.9,375.5,454.2,376.3,454.4z"/>
	<rect x="327.6" y="534.9" fill="#CAD5DA" width="6.1" height="48.3"/>
	<polygon fill="#CAD5DA" points="335.7,518.7 335.7,532.9 335.7,585.2 335.7,606.1 335.7,658.4 335.7,672.2 335.7,677.9 
		409.8,677.9 409.8,493.3 335.7,493.3 	"/>
	<polygon fill="#CAD5DA" points="403.4,249.8 400.7,265.6 400.7,302 440.7,302 440.7,265.6 438.1,249.8 	"/>
	<polygon fill="#CAD5DA" points="347.7,697.1 347.7,712 409.8,712 409.8,682.7 347.7,682.7 	"/>
	<rect x="327.6" y="493.3" fill="#CAD5DA" width="6.1" height="23.3"/>
</g>
</svg>
